<svg version="1" xmlns="http://www.w3.org/2000/svg" width="346.667" height="346.667" viewBox="0 0 260.000000 260.000000"><path d="M71.3 48c-2 .8-2.3 1.7-2.3 5.9 0 5.4 1.4 10.1 3 10.1.5 0 1-1.3 1-2.9 0-6.7 7.5-4.4 13.3 4.1C90.1 70.7 97 85.4 97 88c0 2.7-8.7 16.5-12.4 19.8-4.9 4.3-8.7 5.1-15.5 3.1-2.7-.8-2.2 2.2.9 5.1 8.6 8 16.5 4.5 30.6-13.6 12-15.3 28.8-45.8 28.2-51-.4-3.4-2.7-4.9-6.1-4-2.1.5-4 3.3-10.4 15.6-4.3 8.2-8 15-8.3 15-.3 0-2.2-3.6-4.2-7.9-4.3-9.1-10.2-17-15-19.9-4-2.5-10.4-3.5-13.5-2.2zM165 75.2c-1.1 1.3-2.3 3.4-2.7 4.8-1 4.2-1.3 4.2-5.4.6-5.7-5.2-10.2-6.8-18.1-6.4-5.7.3-7.3.8-10.4 3.4-6 4.8-7.9 9.5-7.9 19.5 0 7.6.3 9 2.7 12.6 3.1 4.7 8 6.9 13.3 5.9 10.3-2 17.1-17 13.5-29.5-.5-1.9-.8-3.6-.6-3.8.2-.2 2.7 1.8 5.7 4.5l5.2 4.8-1.3 6.2c-2.2 10.6.2 18.2 5.7 18.2 3.2 0 6.1-1.5 10.3-5.6l3.6-3.4 1.3 3.6c1.7 4.7 4.6 5.7 11 3.8 6-1.8 14.5-7.3 14.9-9.7.2-1 .1-2.9-.2-4.2l-.6-2.4-5.8 3.9c-3.1 2.2-6.8 4.1-8.2 4.2-2.2.3-2.5-.1-2.8-3.1-.2-1.8.4-7.4 1.3-12.5.9-5 1.5-10.9 1.3-13.1-.3-3.7-.6-4-3.4-4.3-1.8-.2-3.6.3-4.3 1.1-.6.8-2.3 7.2-3.6 14.1-2.6 13.8-3.5 16-6.7 17.7-1.8 1-2.4.8-3.5-.7-.8-1.1-1.2-2.8-.9-3.9.3-1.1 1.4-7.6 2.6-14.4 1.7-10.1 1.9-12.6.8-13.2-2.2-1.5-4.6-1-6.8 1.3zm-23.6 9c4.3 6.1-.6 23.8-6.5 23.8-5 0-7.4-9.2-4.5-17.2 3.1-8.7 7.7-11.4 11-6.6zM163.6 134.1c-3.7 4.3-6.9 11.6-8.8 20.1l-1.1 4.7-6.1.3c-5.3.3-6.1.6-6.1 2.3 0 1.6 1 2.2 5 3l5 1.1.3 9.8.3 9.9-5 4.9c-8.4 8.3-10.5 5.8-7.6-9.2 2.3-11.6 1.9-14.4-2-14.8-1.6-.2-3.8-1.1-4.7-1.9-3.8-3.4-13.1 1.5-18.7 9.7-6.6 9.7-8.2 21.4-3.6 26.8 1.4 1.7 3.8 3.3 5.4 3.7 3.3.7 9.4-1.5 12.8-4.6l2.1-2.1 1.1 2.1c.7 1.2 2.3 2.8 3.6 3.7 3.4 2.2 8.6.3 14.1-5.2 3.8-3.8 4.4-4 4.9-2.3.4 1 1.8 3.3 3.2 4.9 3.5 4.3 8.4 4.1 17.5-.7l6.9-3.6 1.5 2.2c5.8 8.2 21.1 6.5 32.6-3.9 3.6-3.2 4.1-4.1 3.2-5.6-2.1-3.5-4.1-4-6.6-1.7-6.3 5.9-18 9.1-20.8 5.8-.7-.9-1.1-1.6-.9-1.8.2-.1 2.7-1.4 5.4-2.8 2.8-1.4 6.5-4.5 8.3-6.8 7.6-9.9 1-21.3-10.5-18.2-6.8 1.8-11.5 8.6-13.7 19.5-1.2 5.9-1.4 6.2-6.2 8.8-2.7 1.5-6.1 2.8-7.6 2.8-4.8 0-5.8-2.2-5.8-12.2 0-8.2.3-9.4 2.5-12.4 2.5-3.3 2.7-3.3 11.3-3.6l8.7-.3v-3c0-3 0-3-6.2-3.3l-6.3-.3 3.2-6.2c5.7-11.2 3.8-22.7-3.9-23.5-2.5-.3-3.7.4-6.7 3.9zm7.7 6.3c1.3 3.4-5.4 17.8-8.5 18.4-1.6.3-1.6-.2.3-6.9 1.1-3.9 2.6-8.4 3.5-10 1.6-3.1 3.8-3.8 4.7-1.5zm-40.3 32c0 3-3.8 17.4-5.4 20.5-5.5 10.5-10.4-.4-5.2-11.4 3.1-6.8 10.6-13.2 10.6-9.1zm69.6 1.1c.8 3.1-1.6 6.9-5.9 9.5-1.8 1.1-3.5 2-3.9 2-2.6 0 1.5-12.1 4.4-13.3 3-1.2 4.8-.6 5.4 1.8zM58.8 133.3c-10.6 3-16.8 10.4-16.8 20 0 7.6 1.1 7.3 8.2-2.3 4.5-6.1 9.3-8.3 19.4-8.8 9.2-.5 13.9.7 18.6 4.6 6.8 5.7 8.5 15.6 4.7 27.8-2.8 9-4.2 11.7-9.2 17.1-6.7 7.3-16.7 11.2-20 7.8-2-2-2-.9-.2-16.3 1.9-15.5 3.8-23.9 6.6-29.3 2.5-4.9 1.6-6.3-3.7-6.2-4.2.1-5.5 1.6-8.5 9.3-2.9 7.6-4.8 19-5.6 34l-.6 12.8 3.4 1.8c2.1 1.1 6.4 1.9 11.5 2.2 7.2.4 8.9.1 13.8-2.1 19.2-8.8 30.3-39.4 21.1-58.2-3-6.3-7.1-9.8-14.7-12.7-6.8-2.5-21.4-3.3-28-1.5z"/></svg>